<mxfile host="embed.diagrams.net" agent="Mozilla/5.0 (Windows NT 10.0; Win64; x64) AppleWebKit/537.36 (KHTML, like Gecko) Chrome/141.0.0.0 Safari/537.36" version="28.2.8">
  <diagram name="Page-1" id="L-1234567890">
    <mxGraphModel dx="1188" dy="846" grid="1" gridSize="10" guides="1" tooltips="1" connect="1" arrows="1" fold="1" page="1" pageScale="1" pageWidth="1100" pageHeight="850" math="0" shadow="0">
      <root>
        <mxCell id="0" />
        <mxCell id="1" parent="0" />
        <mxCell id="2" value="flight" style="text;html=1;strokeColor=none;fillColor=none;align=center;verticalAlign=middle;whiteSpace=wrap;rounded=0;" parent="1" vertex="1">
          <mxGeometry x="120" y="30" width="160" height="30" as="geometry" />
        </mxCell>
        <mxCell id="3" value="&lt;b&gt;&lt;u&gt;flight_no&lt;/u&gt;&lt;/b&gt;&lt;div&gt;name&lt;br&gt;capacity&lt;br&gt;type&lt;br&gt;status&lt;/div&gt;" style="shape=rectangle;whiteSpace=wrap;html=1;align=left;verticalAlign=top;spacingLeft=4;strokeColor=#000000;fillColor=#ffffff;" parent="1" vertex="1">
          <mxGeometry x="120" y="60" width="160" height="90" as="geometry" />
        </mxCell>
        <mxCell id="4" value="Employee" style="text;html=1;strokeColor=none;fillColor=none;align=center;verticalAlign=middle;whiteSpace=wrap;rounded=0;" parent="1" vertex="1">
          <mxGeometry x="120" y="450" width="160" height="30" as="geometry" />
        </mxCell>
        <mxCell id="5" value="&lt;b&gt;&lt;u&gt;Employee_ID&lt;/u&gt;&lt;/b&gt;&lt;div&gt;Emp_name&lt;br&gt;Role&lt;br&gt;Department&lt;br&gt;Experience&lt;br&gt;Address&lt;/div&gt;" style="shape=rectangle;whiteSpace=wrap;html=1;align=left;verticalAlign=top;spacingLeft=4;strokeColor=#000000;fillColor=#ffffff;" parent="1" vertex="1">
          <mxGeometry x="120" y="480" width="160" height="110" as="geometry" />
        </mxCell>
        <mxCell id="6" value="Boarding_Pass" style="text;html=1;strokeColor=none;fillColor=none;align=center;verticalAlign=middle;whiteSpace=wrap;rounded=0;" parent="1" vertex="1">
          <mxGeometry x="760" y="30" width="180" height="30" as="geometry" />
        </mxCell>
        <mxCell id="7" value="&lt;b&gt;&lt;u&gt;Boarding_ID&lt;/u&gt;&lt;/b&gt;&lt;div&gt;Passenger_name&lt;br&gt;class&lt;br&gt;Gate_no&lt;br&gt;Passenger_age&lt;/div&gt;" style="shape=rectangle;whiteSpace=wrap;html=1;align=left;verticalAlign=top;spacingLeft=4;strokeColor=#000000;fillColor=#ffffff;" parent="1" vertex="1">
          <mxGeometry x="760" y="60" width="180" height="120" as="geometry" />
        </mxCell>
        <mxCell id="8" value="Airport" style="text;html=1;strokeColor=none;fillColor=none;align=center;verticalAlign=middle;whiteSpace=wrap;rounded=0;" parent="1" vertex="1">
          <mxGeometry x="760" y="450" width="160" height="30" as="geometry" />
        </mxCell>
        <mxCell id="9" value="&lt;b&gt;&lt;u&gt;Airport_ID&lt;/u&gt;&lt;/b&gt;&lt;div&gt;Location&lt;br&gt;Name&lt;br&gt;Type&lt;br&gt;Timezone&lt;/div&gt;" style="shape=rectangle;whiteSpace=wrap;html=1;align=left;verticalAlign=top;spacingLeft=4;strokeColor=#000000;fillColor=#ffffff;" parent="1" vertex="1">
          <mxGeometry x="760" y="480" width="160" height="125" as="geometry" />
        </mxCell>
        <mxCell id="10" value="Transaction" style="text;html=1;strokeColor=none;fillColor=none;align=center;verticalAlign=middle;whiteSpace=wrap;rounded=0;" parent="1" vertex="1">
          <mxGeometry x="450" y="600" width="160" height="30" as="geometry" />
        </mxCell>
        <mxCell id="11" value="&lt;b&gt;&lt;u&gt;Transaction_ID&lt;/u&gt;&lt;/b&gt;&lt;div&gt;Payment_mode&lt;br&gt;Amount&lt;br&gt;Booking_status&lt;br&gt;Time_date&lt;/div&gt;" style="shape=rectangle;whiteSpace=wrap;html=1;align=left;verticalAlign=top;spacingLeft=4;strokeColor=#000000;fillColor=#ffffff;" parent="1" vertex="1">
          <mxGeometry x="450" y="630" width="160" height="125" as="geometry" />
        </mxCell>
        <mxCell id="12" value="Airline fact table" style="text;html=1;strokeColor=none;fillColor=none;align=center;verticalAlign=middle;whiteSpace=wrap;rounded=0;" parent="1" vertex="1">
          <mxGeometry x="430" y="270" width="200" height="30" as="geometry" />
        </mxCell>
        <mxCell id="13" value="flight_no&amp;nbsp; &amp;nbsp; &amp;nbsp; &amp;nbsp; &amp;nbsp; &amp;nbsp;(FK)&lt;br&gt;Boarding_ID&amp;nbsp; &amp;nbsp; &amp;nbsp;(FK)&lt;br&gt;Airport_ID&amp;nbsp; &amp;nbsp; &amp;nbsp; &amp;nbsp; &amp;nbsp;(FK)&lt;br&gt;Employee_ID&amp;nbsp; &amp;nbsp; &amp;nbsp;(FK)&lt;br&gt;Transaction_ID&amp;nbsp; (FK)" style="shape=rectangle;whiteSpace=wrap;html=1;align=left;spacingLeft=4;strokeWidth=2;strokeColor=#000000;fillColor=#ffffff;" parent="1" vertex="1">
          <mxGeometry x="430" y="300" width="200" height="130" as="geometry" />
        </mxCell>
        <mxCell id="14" value="" style="edgeStyle=orthogonalEdgeStyle;rounded=0;orthogonalLoop=1;jettySize=auto;html=1;endArrow=classic;endFill=1;" parent="1" source="13" target="3" edge="1">
          <mxGeometry relative="1" as="geometry">
            <mxPoint x="430" y="320" as="sourcePoint" />
            <mxPoint x="280" y="122.5" as="targetPoint" />
            <Array as="points">
              <mxPoint x="350" y="320" />
              <mxPoint x="350" y="122.5" />
            </Array>
          </mxGeometry>
        </mxCell>
        <mxCell id="15" value="" style="edgeStyle=orthogonalEdgeStyle;rounded=0;orthogonalLoop=1;jettySize=auto;html=1;endArrow=classic;endFill=1;" parent="1" source="13" target="5" edge="1">
          <mxGeometry relative="1" as="geometry">
            <mxPoint x="430" y="380" as="sourcePoint" />
            <mxPoint x="280" y="555" as="targetPoint" />
            <Array as="points">
              <mxPoint x="350" y="380" />
              <mxPoint x="350" y="555" />
            </Array>
          </mxGeometry>
        </mxCell>
        <mxCell id="16" value="" style="edgeStyle=orthogonalEdgeStyle;rounded=0;orthogonalLoop=1;jettySize=auto;html=1;endArrow=classic;endFill=1;" parent="1" source="13" target="7" edge="1">
          <mxGeometry relative="1" as="geometry">
            <mxPoint x="630" y="346" as="sourcePoint" />
            <mxPoint x="760" y="122.5" as="targetPoint" />
            <Array as="points">
              <mxPoint x="700" y="346" />
              <mxPoint x="700" y="122.5" />
            </Array>
          </mxGeometry>
        </mxCell>
        <mxCell id="17" value="" style="edgeStyle=orthogonalEdgeStyle;rounded=0;orthogonalLoop=1;jettySize=auto;html=1;endArrow=classic;endFill=1;" parent="1" source="13" target="9" edge="1">
          <mxGeometry relative="1" as="geometry">
            <mxPoint x="630" y="365" as="sourcePoint" />
            <mxPoint x="760" y="542.5" as="targetPoint" />
            <Array as="points">
              <mxPoint x="700" y="365" />
              <mxPoint x="700" y="542.5" />
            </Array>
          </mxGeometry>
        </mxCell>
        <mxCell id="18" value="" style="edgeStyle=orthogonalEdgeStyle;rounded=0;orthogonalLoop=1;jettySize=auto;html=1;endArrow=classic;endFill=1;" parent="1" source="13" target="11" edge="1">
          <mxGeometry relative="1" as="geometry">
            <mxPoint x="430" y="404" as="sourcePoint" />
            <mxPoint x="450" y="692.5" as="targetPoint" />
            <Array as="points">
              <mxPoint x="390" y="404" />
              <mxPoint x="390" y="692.5" />
            </Array>
          </mxGeometry>
        </mxCell>
      </root>
    </mxGraphModel>
  </diagram>
</mxfile>
